<svg xmlns="http://www.w3.org/2000/svg" width="1600" height="1000" viewBox="0 0 1600 1000" preserveAspectRatio="xMidYMid slice">
	<defs>
		<linearGradient id="base" x1="0%" y1="0%" x2="100%" y2="100%">
			<stop offset="0%" stop-color="#f4f6f8"/>
			<stop offset="35%" stop-color="#e4eaef"/>
			<stop offset="70%" stop-color="#ced8e2"/>
			<stop offset="100%" stop-color="#b7c4d1"/>
		</linearGradient>
		<radialGradient id="glowBlue" cx="16%" cy="20%" r="48%">
			<stop offset="0%" stop-color="#1c9bd8" stop-opacity="0.22"/>
			<stop offset="50%" stop-color="#1c9bd8" stop-opacity="0.07"/>
			<stop offset="100%" stop-color="#1c9bd8" stop-opacity="0"/>
		</radialGradient>
		<radialGradient id="glowOrange" cx="86%" cy="80%" r="42%">
			<stop offset="0%" stop-color="#f47b20" stop-opacity="0.16"/>
			<stop offset="55%" stop-color="#f47b20" stop-opacity="0.05"/>
			<stop offset="100%" stop-color="#f47b20" stop-opacity="0"/>
		</radialGradient>
		<linearGradient id="waveSilver" x1="0%" y1="0%" x2="100%" y2="0%">
			<stop offset="0%" stop-color="#7a8a9a" stop-opacity="0"/>
			<stop offset="15%" stop-color="#6a7b8c" stop-opacity="0.75"/>
			<stop offset="50%" stop-color="#5a6b7c" stop-opacity="0.45"/>
			<stop offset="85%" stop-color="#7a8a9a" stop-opacity="0.7"/>
			<stop offset="100%" stop-color="#7a8a9a" stop-opacity="0"/>
		</linearGradient>
		<linearGradient id="waveBlue" x1="0%" y1="0%" x2="100%" y2="0%">
			<stop offset="0%" stop-color="#1c9bd8" stop-opacity="0"/>
			<stop offset="35%" stop-color="#1c9bd8" stop-opacity="0.45"/>
			<stop offset="70%" stop-color="#0b6ea8" stop-opacity="0.25"/>
			<stop offset="100%" stop-color="#1c9bd8" stop-opacity="0"/>
		</linearGradient>
		<linearGradient id="waveOrange" x1="0%" y1="0%" x2="100%" y2="0%">
			<stop offset="0%" stop-color="#f47b20" stop-opacity="0"/>
			<stop offset="50%" stop-color="#f47b20" stop-opacity="0.38"/>
			<stop offset="100%" stop-color="#f47b20" stop-opacity="0"/>
		</linearGradient>
	</defs>

	<rect width="1600" height="1000" fill="url(#base)"/>
	<rect width="1600" height="1000" fill="url(#glowBlue)"/>
	<rect width="1600" height="1000" fill="url(#glowOrange)"/>

	<!-- Ondas concéntricas -->
	<g fill="none" stroke="#6f8090" stroke-opacity="0.38">
		<circle cx="200" cy="160" r="70" stroke-width="1.4"/>
		<circle cx="200" cy="160" r="130" stroke-width="1.5"/>
		<circle cx="200" cy="160" r="200" stroke-width="1.6"/>
		<circle cx="200" cy="160" r="280" stroke-width="1.4"/>
		<circle cx="200" cy="160" r="370" stroke-width="1.2"/>
		<circle cx="200" cy="160" r="470" stroke-width="1"/>
	</g>
	<g fill="none" stroke="#1c9bd8" stroke-opacity="0.28">
		<circle cx="200" cy="160" r="100" stroke-width="2"/>
		<circle cx="200" cy="160" r="240" stroke-width="1.6"/>
		<circle cx="200" cy="160" r="420" stroke-width="1.2"/>
	</g>
	<g fill="none" stroke="#8a97a5" stroke-opacity="0.32">
		<circle cx="1420" cy="840" r="60" stroke-width="1.3"/>
		<circle cx="1420" cy="840" r="120" stroke-width="1.4"/>
		<circle cx="1420" cy="840" r="190" stroke-width="1.4"/>
		<circle cx="1420" cy="840" r="270" stroke-width="1.2"/>
		<circle cx="1420" cy="840" r="360" stroke-width="1"/>
	</g>
	<g fill="none" stroke="#f47b20" stroke-opacity="0.22">
		<circle cx="1420" cy="840" r="155" stroke-width="2"/>
		<circle cx="1420" cy="840" r="310" stroke-width="1.3"/>
	</g>

	<!-- Waveforms -->
	<path d="M-40 300 C 80 230, 200 370, 320 300 S 560 230, 680 300 S 920 370, 1040 300 S 1280 230, 1400 300 S 1640 370, 1760 300" fill="none" stroke="url(#waveSilver)" stroke-width="3" stroke-linecap="round"/>
	<path d="M-40 370 C 100 310, 220 430, 340 370 S 580 310, 700 370 S 940 430, 1060 370 S 1300 310, 1420 370 S 1660 430, 1780 370" fill="none" stroke="url(#waveBlue)" stroke-width="2.6" stroke-linecap="round"/>
	<path d="M-40 440 C 90 390, 210 490, 330 440 S 570 390, 690 440 S 930 490, 1050 440 S 1290 390, 1410 440 S 1650 490, 1770 440" fill="none" stroke="#708090" stroke-opacity="0.55" stroke-width="2" stroke-linecap="round"/>
	<path d="M-40 510 C 110 450, 230 570, 350 510 S 590 450, 710 510 S 950 570, 1070 510 S 1310 450, 1430 510 S 1670 570, 1790 510" fill="none" stroke="url(#waveOrange)" stroke-width="2.4" stroke-linecap="round"/>
	<path d="M-40 580 C 80 540, 200 620, 320 580 S 560 540, 680 580 S 920 620, 1040 580 S 1280 540, 1400 580 S 1640 620, 1760 580" fill="none" stroke="#5f7080" stroke-opacity="0.42" stroke-width="1.8" stroke-linecap="round"/>
	<path d="M-40 650 C 95 610, 215 690, 335 650 S 575 610, 695 650 S 935 690, 1055 650 S 1295 610, 1415 650 S 1655 690, 1775 650" fill="none" stroke="#1c9bd8" stroke-opacity="0.2" stroke-width="1.6" stroke-linecap="round"/>

	<!-- Ecualizador -->
	<g>
		<rect x="1160" y="120" width="8" height="40" rx="2" fill="#7a8a9a" fill-opacity="0.28"/>
		<rect x="1174" y="100" width="8" height="60" rx="2" fill="#1c9bd8" fill-opacity="0.28"/>
		<rect x="1188" y="132" width="8" height="28" rx="2" fill="#7a8a9a" fill-opacity="0.28"/>
		<rect x="1202" y="88" width="8" height="72" rx="2" fill="#f47b20" fill-opacity="0.25"/>
		<rect x="1216" y="112" width="8" height="48" rx="2" fill="#7a8a9a" fill-opacity="0.28"/>
		<rect x="1230" y="96" width="8" height="64" rx="2" fill="#1c9bd8" fill-opacity="0.26"/>
		<rect x="1244" y="128" width="8" height="32" rx="2" fill="#7a8a9a" fill-opacity="0.28"/>
		<rect x="1258" y="80" width="8" height="80" rx="2" fill="#1c9bd8" fill-opacity="0.3"/>
		<rect x="1272" y="108" width="8" height="52" rx="2" fill="#f47b20" fill-opacity="0.22"/>
		<rect x="1286" y="92" width="8" height="68" rx="2" fill="#7a8a9a" fill-opacity="0.3"/>
		<rect x="1300" y="118" width="8" height="42" rx="2" fill="#1c9bd8" fill-opacity="0.24"/>
		<rect x="1314" y="104" width="8" height="56" rx="2" fill="#7a8a9a" fill-opacity="0.28"/>
	</g>
</svg>
