<svg xmlns="http://www.w3.org/2000/svg" width="360" height="120" viewBox="0 0 360 120" role="img" aria-labelledby="title desc">
	<title id="title">Mizo Ingeniería</title>
	<desc id="desc">Logotipo de Mizo para audio, audiovisual e instalaciones profesionales.</desc>
	<rect width="360" height="120" rx="28" fill="#ffffff"/>
	<rect x="10" y="10" width="100" height="100" rx="24" fill="#1877f2"/>
	<path d="M34 82V38h11.5l14.2 22.4L73.8 38H85v44H73.8V56.8L62.5 74.4h-5.8L45.4 56.8V82H34Z" fill="#ffffff"/>
	<path d="M132 82V38h13.5l14.6 24.8L174.7 38H188v44h-12.3V58.9l-11.5 19.3h-8.3l-11.6-19.3V82H132Z" fill="#0f172a"/>
	<path d="M203 82V38h12.7v44H203Z" fill="#0f172a"/>
	<path d="M230 82v-9l24-24h-23.2V38h39.8v9l-24 24h24.6v11H230Z" fill="#0f172a"/>
	<path d="M303.4 83c-13.6 0-23.6-9.5-23.6-23s10-23 23.6-23c13.7 0 23.6 9.5 23.6 23s-9.9 23-23.6 23Zm0-11.7c6.2 0 10.5-4.7 10.5-11.3s-4.3-11.3-10.5-11.3S293 53.4 293 60s4.2 11.3 10.4 11.3Z" fill="#1877f2"/>
	<path d="M132 96h194" stroke="#1877f2" stroke-width="5" stroke-linecap="round"/>
</svg>
